<svg width="500" height="500" viewBox="0 0 500 500" fill="none" xmlns="http://www.w3.org/2000/svg">
<g clip-path="url(#clip0_22_3)">
<circle cx="250" cy="250" r="250" fill="#0072EF"/>
<path d="M170.35 404.55C159.867 404.55 150.233 400.3 141.45 391.8C132.95 383.3 128.7 369.842 128.7 351.425C128.7 333.008 130.4 315.3 133.8 298.3C137.483 281.017 141.592 264.442 146.125 248.575C150.942 232.708 155.05 217.692 158.45 203.525C162.133 189.075 163.975 175.475 163.975 162.725C159.725 161.025 155.758 160.175 152.075 160.175C146.975 160.175 142.725 161.733 139.325 164.85C135.925 167.967 133.233 172.217 131.25 177.6L127 176.325C127.283 156.492 130.117 140.767 135.5 129.15C141.167 117.25 148.392 108.75 157.175 103.65C165.958 98.55 175.025 96 184.375 96C198.542 96 211.15 100.675 222.2 110.025C233.533 119.092 243.592 131.558 252.375 147.425C261.442 163.292 269.233 181.283 275.75 201.4C282.55 221.233 288.358 242.058 293.175 263.875C297.992 285.408 301.817 306.658 304.65 327.625C306.35 316.292 308.05 302.408 309.75 285.975C311.733 269.542 313.433 252.258 314.85 234.125C316.267 215.992 316.975 198.708 316.975 182.275C316.975 170.375 316.55 159.608 315.7 149.975C314.85 140.058 313.433 131.558 311.45 124.475V121.075C318.817 112.858 326.183 106.625 333.55 102.375C341.2 98.125 348.283 96 354.8 96C364.433 96 372.367 100.25 378.6 108.75C385.117 116.967 388.375 128.725 388.375 144.025C388.375 155.358 386.817 169.242 383.7 185.675C380.583 201.825 376.9 219.108 372.65 237.525C368.4 255.942 364.575 274.075 361.175 291.925C358.058 309.492 356.358 325.358 356.075 339.525C356.075 343.492 356.358 347.742 356.925 352.275C357.492 356.808 360.467 359.075 365.85 359.075C366.133 360.208 366.275 361.058 366.275 361.625C366.275 362.192 366.275 362.758 366.275 363.325C365.992 374.092 361.6 383.725 353.1 392.225C344.6 400.442 333.267 404.55 319.1 404.55C308.05 404.55 298.7 401.717 291.05 396.05C283.4 390.383 277.025 382.875 271.925 373.525C266.825 363.892 262.433 353.125 258.75 341.225C255.35 329.042 252.092 316.575 248.975 303.825C243.308 281.725 237.358 260.758 231.125 240.925C225.175 220.808 217.1 202.392 206.9 185.675C207.467 197.008 207.042 209.475 205.625 223.075C204.208 236.392 202.65 249.992 200.95 263.875C199.533 277.475 198.825 290.65 198.825 303.4C198.825 314.733 199.817 325.217 201.8 334.85C203.783 344.2 207.325 352.558 212.425 359.925C212.425 373.808 208.033 384.717 199.25 392.65C190.467 400.583 180.833 404.55 170.35 404.55Z" fill="white"/>
</g>
<defs>
<clipPath id="clip0_22_3">
<rect width="500" height="500" fill="white"/>
</clipPath>
</defs>
</svg>
